<svg width="32" height="32" viewBox="0 0 32 32" fill="none" xmlns="http://www.w3.org/2000/svg">
<path fill-rule="evenodd" clip-rule="evenodd" d="M31.4089 26.2818C31.2349 26.2818 31.1005 26.2818 30.966 26.2818C26.8487 26.2818 22.7313 26.2821 18.614 26.2809C18.4204 26.2809 18.2261 26.2773 18.0335 26.2601C17.6372 26.2246 17.3677 25.915 17.3794 25.5221C17.3904 25.145 17.6641 24.859 18.0464 24.8304C18.1485 24.8227 18.2516 24.8275 18.3542 24.8275C22.0724 24.8274 25.7906 24.8274 29.5088 24.8274C29.6432 24.8274 29.7776 24.8274 29.9328 24.8274C29.9328 19.4664 29.9328 14.136 29.9328 8.76444C27.5022 8.76444 25.0918 8.76444 22.652 8.76444C22.652 6.32194 22.652 3.92044 22.652 1.49526C18.5124 1.49526 14.4025 1.49526 10.2436 1.49526C10.2436 1.61989 10.2436 1.74056 10.2436 1.86129C10.2436 3.07025 10.2472 4.27921 10.2399 5.48811C10.2388 5.67852 10.212 5.87583 10.1562 6.05734C10.0594 6.37245 9.82943 6.55232 9.49392 6.54753C9.17403 6.54294 8.95939 6.36472 8.85851 6.0659C8.81183 5.92758 8.77549 5.77789 8.77514 5.63328C8.77042 3.80847 8.77302 1.98359 8.77473 0.158788C8.77473 0.12573 8.78671 0.0926033 8.80108 0.0184119C8.91394 0.0125259 9.03399 0.000822026 9.15411 0.000822026C13.8873 -0.000136165 18.6206 -0.00232617 23.3537 0.00910369C23.5331 0.00958278 23.7584 0.0976001 23.8847 0.222918C26.3293 2.64933 28.7642 5.08567 31.1924 7.52844C31.3054 7.64219 31.3997 7.83527 31.4 7.99166C31.4104 13.9908 31.4089 19.9901 31.4089 25.9893C31.4089 26.0679 31.4089 26.1465 31.4089 26.2818ZM28.7856 7.29341C27.2311 5.73854 25.6732 4.18032 24.1268 2.63345C24.1268 4.15609 24.1268 5.71842 24.1268 7.29341C25.7065 7.29341 27.2631 7.29341 28.7856 7.29341Z" fill="#393737"/>
<path fill-rule="evenodd" clip-rule="evenodd" d="M8.00111 31.9966C6.46136 31.9965 4.92162 32.0058 3.38201 31.9941C1.74193 31.9815 0.453709 30.9749 0.105475 29.4263C0.0238239 29.0631 0.00404364 28.68 0.0026748 28.3058C-0.00375877 26.5838 0.0022644 24.8618 0.0117094 23.1398C0.0227971 21.124 1.42545 19.7176 3.43957 19.7132C6.50756 19.7065 9.57562 19.7075 12.6436 19.7129C14.6782 19.7165 16.075 21.1248 16.0774 23.1627C16.0794 24.9647 16.0802 26.7667 16.0772 28.5687C16.0738 30.5813 14.6712 31.9874 12.6545 31.9954C11.1033 32.0015 9.55221 31.9967 8.00111 31.9966ZM8.05162 21.1829C6.52433 21.1829 4.99697 21.1805 3.46968 21.1837C2.20207 21.1863 1.48356 21.9084 1.48397 23.1823C1.48445 24.9944 1.52593 26.8073 1.48157 28.6182C1.45783 29.5888 2.23471 30.5407 3.39207 30.5326C6.49216 30.5107 9.59253 30.5289 12.6928 30.5231C13.8646 30.521 14.5883 29.7954 14.5967 28.6263C14.61 26.8146 14.6186 25.0028 14.6213 23.191C14.6231 21.914 13.8852 21.1854 12.5995 21.1835C11.0835 21.1812 9.56754 21.1829 8.05162 21.1829Z" fill="#393737"/>
<path fill-rule="evenodd" clip-rule="evenodd" d="M8.06367 8.04244C10.897 8.05237 13.1621 10.3325 13.1504 13.1632C13.1388 16.0073 10.8447 18.2739 7.99516 18.2567C5.1856 18.2397 2.91948 15.9271 2.93687 13.0948C2.95411 10.2948 5.24967 8.03259 8.06367 8.04244ZM8.04409 9.49725C6.03429 9.49828 4.3825 11.1546 4.39414 13.1573C4.40571 15.1557 6.03347 16.7846 8.03342 16.7991C10.0341 16.8138 11.6945 15.1599 11.696 13.151C11.6976 11.1379 10.0567 9.49616 8.04409 9.49725Z" fill="#393737"/>
<path fill-rule="evenodd" clip-rule="evenodd" d="M22.5672 12.4394C21.1301 12.4394 19.693 12.4399 18.2558 12.4391C17.6912 12.4388 17.3751 12.1759 17.3787 11.7143C17.3822 11.2645 17.69 11.0063 18.234 11.0024C20.7417 10.9844 23.2492 10.9646 25.7568 10.9529C26.1886 10.9509 26.6204 10.985 27.0523 11.0025C27.4811 11.0199 27.7722 11.3008 27.7802 11.7047C27.7884 12.1232 27.4921 12.4356 27.0497 12.4362C25.681 12.4383 24.3124 12.4284 22.9437 12.4232C22.8182 12.4227 22.6928 12.4232 22.5672 12.4232C22.5672 12.4286 22.5672 12.434 22.5672 12.4394Z" fill="#BF2A30"/>
<path fill-rule="evenodd" clip-rule="evenodd" d="M22.5616 18.2569C24.021 18.257 25.4804 18.256 26.9398 18.2575C27.4711 18.258 27.7849 18.5318 27.7804 18.9833C27.7761 19.4225 27.47 19.6921 26.9582 19.6934C24.0737 19.7008 21.1892 19.7058 18.3047 19.7112C18.2364 19.7114 18.1678 19.7099 18.0997 19.7053C17.5904 19.6711 17.2973 19.3905 17.3107 18.951C17.324 18.5159 17.6324 18.2579 18.149 18.2574C19.6199 18.2559 21.0907 18.2569 22.5616 18.2569Z" fill="#BF2A30"/>
<path fill-rule="evenodd" clip-rule="evenodd" d="M22.5611 16.0667C21.0903 16.0667 19.6195 16.0704 18.1486 16.0649C17.5739 16.0628 17.226 15.5724 17.434 15.0726C17.5626 14.7635 17.8051 14.6297 18.1351 14.6288C19.5714 14.6247 21.0079 14.6128 22.4442 14.6129C23.9262 14.613 25.4082 14.6238 26.8903 14.6295C27.4628 14.6317 27.7761 14.8813 27.7804 15.3406C27.7847 15.8025 27.4687 16.0663 26.9051 16.0666C25.4572 16.0674 24.0091 16.0668 22.5611 16.0667Z" fill="#BF2A30"/>
<path fill-rule="evenodd" clip-rule="evenodd" d="M14.8467 11.7208C14.8477 11.3305 15.1751 11.0036 15.5646 11.0037C15.9542 11.004 16.2823 11.3322 16.2819 11.7213C16.2816 12.1107 15.9533 12.4386 15.564 12.4385C15.1747 12.4383 14.8457 12.1091 14.8467 11.7208Z" fill="#BF2A30"/>
<path fill-rule="evenodd" clip-rule="evenodd" d="M15.5629 16.0659C15.1735 16.0651 14.8451 15.7356 14.8467 15.3472C14.8483 14.957 15.1762 14.6304 15.5657 14.6312C15.9554 14.6321 16.2829 14.9606 16.2819 15.3499C16.281 15.7395 15.9524 16.0667 15.5629 16.0659Z" fill="#BF2A30"/>
<path fill-rule="evenodd" clip-rule="evenodd" d="M15.5784 19.6929C15.1888 19.7008 14.8539 19.3791 14.847 18.9901C14.8401 18.5994 15.1599 18.2669 15.5501 18.2591C15.9397 18.2514 16.2738 18.5722 16.2814 18.9617C16.2891 19.3514 15.9683 19.685 15.5784 19.6929Z" fill="#BF2A30"/>
</svg>
