<svg width="32" height="27" viewBox="0 0 32 27" fill="none" xmlns="http://www.w3.org/2000/svg">
<path fill-rule="evenodd" clip-rule="evenodd" d="M0 24.9882C0 17.3325 0 9.67676 0 2.02108C0.0179451 1.98057 0.041247 1.94153 0.0530319 1.89928C0.399547 0.656447 1.234 0.00198462 2.50683 0.00158287C11.2446 -0.000961596 19.9824 -0.000894579 28.7201 0.00519874C29.0058 0.00539961 29.3036 0.0396163 29.5749 0.124454C30.621 0.451886 31.2157 1.35222 31.2151 2.57129C31.212 9.84704 31.2073 17.1229 31.203 24.3987C31.202 26.0195 30.2206 26.9991 28.5961 26.9992C22.8602 26.9996 17.1243 26.9993 11.3884 26.9993C8.40884 26.9993 5.42928 27.0015 2.44978 26.998C1.4411 26.9968 0.700798 26.5376 0.241523 25.642C0.136397 25.4368 0.0792801 25.2068 0 24.9882ZM1.33919 5.79746C1.33919 5.93125 1.33919 6.03048 1.33919 6.12985C1.33919 12.2447 1.33886 18.3597 1.33966 24.4745C1.33973 25.2507 1.75702 25.6598 2.54587 25.6599C11.2495 25.6603 19.9531 25.6603 28.6568 25.6599C29.4598 25.6598 29.8624 25.2517 29.8638 24.4415C29.8682 21.9869 29.8747 19.5322 29.876 17.0774C29.8781 13.4398 29.8768 9.80204 29.8759 6.1644C29.8759 6.04615 29.8651 5.92803 29.8589 5.79753C20.3461 5.79746 10.8657 5.79746 1.33919 5.79746ZM29.8634 4.42935C29.8634 3.67217 29.8928 2.93709 29.8456 2.20696C29.8312 1.98459 29.6543 1.6978 29.4649 1.58015C29.2187 1.42702 28.886 1.34908 28.5904 1.34867C19.944 1.33716 11.2975 1.33937 2.65099 1.33957C2.53944 1.33957 2.42762 1.33736 2.3164 1.34459C1.83482 1.37599 1.387 1.73965 1.36102 2.21828C1.32145 2.94867 1.35064 3.68275 1.35064 4.42935C10.8582 4.42935 20.3384 4.42935 29.8634 4.42935Z" fill="#393737"/>
<path fill-rule="evenodd" clip-rule="evenodd" d="M11.7337 8.67846C11.8309 8.61223 11.8901 8.56717 11.9536 8.52934C12.2766 8.33703 12.6374 8.39441 12.8528 8.67049C13.0777 8.95875 13.0426 9.33754 12.7445 9.5964C12.4838 9.82266 12.2117 10.0375 11.9308 10.2379C11.7685 10.3537 11.7081 10.4819 11.7103 10.6818C11.7205 11.6405 11.7158 12.5994 11.7145 13.5582C11.7136 14.1827 11.488 14.4157 10.8777 14.4162C9.13844 14.4179 7.39916 14.4181 5.65996 14.4159C5.08531 14.4152 4.84713 14.1807 4.84579 13.6009C4.84171 11.8616 4.84184 10.1224 4.84573 8.38317C4.84707 7.78816 5.08082 7.56358 5.68821 7.56278C7.39407 7.5605 9.09987 7.5613 10.8057 7.56217C11.5017 7.56251 11.6972 7.75502 11.7154 8.44872C11.717 8.51039 11.7249 8.57172 11.7337 8.67846ZM10.3665 11.4778C9.90773 11.8357 9.50149 12.1607 9.08641 12.4741C8.70574 12.7616 8.37449 12.725 8.05891 12.3644C7.7136 11.9699 7.37365 11.5707 7.03664 11.1692C6.74249 10.8187 6.75354 10.4165 7.05559 10.1606C7.36361 9.89973 7.7363 9.95096 8.05396 10.3048C8.276 10.5521 8.491 10.8059 8.71659 11.0653C9.1227 10.746 9.48308 10.4028 9.89896 10.1513C10.4024 9.8469 10.4541 9.43563 10.3369 8.92701C8.96354 8.92701 7.58872 8.92701 6.20635 8.92701C6.20635 10.3196 6.20635 11.686 6.20635 13.0505C7.6056 13.0505 8.98168 13.0505 10.3665 13.0505C10.3665 12.5343 10.3665 12.0451 10.3665 11.4778Z" fill="#CA282C"/>
<path fill-rule="evenodd" clip-rule="evenodd" d="M11.7147 19.9346C11.7147 20.804 11.7169 21.6735 11.7139 22.543C11.712 23.1061 11.4637 23.3563 10.8942 23.3575C9.15525 23.3609 7.41631 23.3607 5.67737 23.3577C5.09148 23.3566 4.84654 23.1106 4.8454 22.5207C4.84212 20.7929 4.84239 19.0652 4.8452 17.3374C4.84621 16.7268 5.088 16.4903 5.69981 16.4899C7.42756 16.4888 9.15539 16.4884 10.8831 16.4901C11.474 16.4907 11.7128 16.7318 11.7142 17.3261C11.7163 18.1957 11.7148 19.0651 11.7147 19.9346ZM10.3481 22.0197C10.3481 20.5936 10.3481 19.2194 10.3481 17.8469C8.95471 17.8469 7.58907 17.8469 6.22437 17.8469C6.20836 17.8945 6.18888 17.9254 6.18881 17.9562C6.18607 19.237 6.18828 20.5178 6.18078 21.7986C6.1795 22.0162 6.30164 22.0216 6.45986 22.0208C7.06129 22.0177 7.66272 22.0197 8.26415 22.0197C8.95263 22.0197 9.64111 22.0197 10.3481 22.0197Z" fill="#393737"/>
<path fill-rule="evenodd" clip-rule="evenodd" d="M20.4262 10.1984C18.7641 10.1984 17.1019 10.2076 15.44 10.1874C15.2193 10.1846 14.9475 10.0873 14.7918 9.93763C14.4734 9.63156 14.6275 9.08115 15.045 8.92259C15.1759 8.87291 15.3279 8.862 15.4703 8.86186C18.7721 8.85865 22.0739 8.85938 25.3757 8.85938C25.4203 8.85938 25.465 8.85818 25.5095 8.85992C25.9371 8.87633 26.2379 9.15307 26.2387 9.53025C26.2396 9.91005 25.9424 10.1933 25.5123 10.196C24.4751 10.2024 23.4379 10.1984 22.4006 10.1986C21.7425 10.1986 21.0844 10.1985 20.4262 10.1984Z" fill="#393737"/>
<path fill-rule="evenodd" clip-rule="evenodd" d="M20.4221 11.7855C22.1284 11.7859 23.8347 11.7829 25.5409 11.7881C25.9394 11.7893 26.2146 12.0489 26.2375 12.4107C26.2607 12.7742 25.9837 13.0752 25.5811 13.1178C25.4817 13.1283 25.3805 13.124 25.2802 13.124C24.4326 13.1244 23.5849 13.1242 22.7373 13.1242C20.3612 13.1242 17.9851 13.1242 15.6091 13.1241C15.5087 13.1241 15.4078 13.1284 15.3081 13.12C14.8936 13.0848 14.6237 12.8096 14.6305 12.4345C14.6373 12.0618 14.9212 11.7915 15.3353 11.7875C16.0604 11.7804 16.7855 11.7851 17.5106 11.7851C18.4811 11.7849 19.4516 11.785 20.4221 11.7855Z" fill="#393737"/>
<path fill-rule="evenodd" clip-rule="evenodd" d="M20.394 18.9702C18.7877 18.9702 17.1813 18.9704 15.575 18.9699C15.4523 18.9698 15.3284 18.9752 15.2073 18.9601C14.8929 18.9207 14.6602 18.6692 14.6351 18.3553C14.6108 18.0492 14.7786 17.7783 15.0752 17.6832C15.1993 17.6435 15.3374 17.6332 15.4692 17.633C18.7822 17.6305 22.0951 17.631 25.4081 17.6311C25.4638 17.6311 25.5199 17.6287 25.5753 17.6333C25.9577 17.6651 26.2373 17.9472 26.2388 18.3007C26.2403 18.669 25.9514 18.961 25.5469 18.9658C24.7106 18.9754 23.8742 18.9699 23.0377 18.9702C22.1565 18.9705 21.2753 18.9703 20.394 18.9702Z" fill="#393737"/>
<path fill-rule="evenodd" clip-rule="evenodd" d="M20.4179 21.8958C18.7892 21.8959 17.1606 21.8981 15.5319 21.8925C15.3568 21.8919 15.1706 21.8745 15.0092 21.8132C14.7312 21.7076 14.5875 21.3971 14.6479 21.0966C14.7097 20.7893 14.9009 20.6068 15.2127 20.5655C15.3335 20.5495 15.4577 20.5569 15.5803 20.5569C17.8337 20.5565 20.087 20.5566 22.3404 20.5566C23.3663 20.5566 24.3921 20.5554 25.4179 20.5572C25.9345 20.5581 26.2443 20.8131 26.2389 21.2263C26.2337 21.6345 25.9167 21.8939 25.4038 21.8947C23.7418 21.8974 22.0798 21.8957 20.4179 21.8958Z" fill="#393737"/>
<path fill-rule="evenodd" clip-rule="evenodd" d="M28.5894 2.90382C28.5822 3.26044 28.2729 3.55962 27.9196 3.55192C27.5665 3.54422 27.2634 3.22944 27.2711 2.8783C27.2788 2.52436 27.5926 2.22257 27.9448 2.2304C28.3005 2.23831 28.5967 2.54766 28.5894 2.90382Z" fill="#CA282C"/>
<path fill-rule="evenodd" clip-rule="evenodd" d="M25.9729 2.90555C25.9638 3.2601 25.65 3.56088 25.2982 3.55198C24.9454 3.54314 24.643 3.22696 24.6518 2.87629C24.6607 2.52308 24.9763 2.22149 25.3276 2.23047C25.682 2.23971 25.9819 2.55328 25.9729 2.90555Z" fill="#CA282C"/>
<path fill-rule="evenodd" clip-rule="evenodd" d="M23.3546 2.88828C23.3561 3.24068 23.0489 3.55051 22.6963 3.55205C22.3442 3.55359 22.0362 3.24725 22.0344 2.8937C22.0326 2.53908 22.336 2.23247 22.6907 2.2306C23.0434 2.22872 23.3531 2.53553 23.3546 2.88828Z" fill="#CA282C"/>
</svg>
