<svg width="34" height="51" viewBox="0 0 34 51" fill="none" xmlns="http://www.w3.org/2000/svg">
<path fill-rule="evenodd" clip-rule="evenodd" d="M14.2942 51C14.0501 50.9061 13.7983 50.8285 13.5639 50.7149C12.4065 50.1546 11.7495 49.2415 11.6899 47.944C11.6595 47.2648 11.6677 46.5842 11.6823 45.9035C11.6927 45.3805 11.4956 44.9975 11.0901 44.6599C9.79039 43.5779 8.44098 42.5419 7.25319 41.3467C6.33878 40.4253 5.57378 39.3351 4.85995 38.2422C3.44483 36.0786 2.15321 33.8318 0.729675 31.6736C-0.370785 30.004 -0.0886538 28.539 0.668098 27.5622C1.57227 26.3947 3.36163 25.9409 4.9278 26.4624C5.73985 26.7336 6.3817 27.233 6.93028 27.8805C8.11923 29.2819 9.31874 30.6765 10.5818 32.1525C10.5935 31.8869 10.6074 31.7154 10.6074 31.5437C10.6087 25.1369 10.6059 18.7319 10.6102 12.3251C10.6115 10.4217 11.8928 8.85288 13.6585 8.56365C16.029 8.17554 18.0169 9.86634 18.0481 12.3245C18.0702 14.0503 18.0529 15.7767 18.0529 17.5027C18.0529 17.684 18.0529 17.8651 18.0529 18.114C18.9452 17.7987 19.8169 17.6818 20.6953 17.9488C21.5669 18.2136 22.255 18.74 22.7856 19.53C23.68 18.9718 24.6339 18.7166 25.6734 18.9295C26.6971 19.1405 27.4907 19.7049 28.0267 20.4873C28.7234 20.291 29.3596 19.9996 30.0147 19.9471C32.1466 19.7763 33.9401 21.3839 33.9678 23.5724C34.0093 26.8733 33.9914 30.1783 33.8869 33.4777C33.8323 35.2098 33.274 36.8601 32.5491 38.4415C31.7273 40.2341 30.8957 42.023 30.124 43.8368C29.8971 44.3695 29.8009 44.978 29.7484 45.5618C29.6855 46.2535 29.736 46.9549 29.7325 47.6508C29.7241 49.3247 28.8318 50.484 27.2231 50.9198C27.1607 50.9365 27.1032 50.9725 27.0438 51C22.794 51 18.5442 51 14.2942 51ZM12.7233 23.6305C12.7233 27.0656 12.7233 30.5019 12.7226 33.9383C12.7226 34.3351 12.7281 34.735 12.7129 35.132C12.6962 35.5761 12.4555 35.8833 12.0531 36.0425C11.6476 36.2042 11.2694 36.1186 10.9435 35.8293C10.8453 35.7408 10.7629 35.6357 10.6764 35.5347C8.88556 33.4401 7.10726 31.336 5.29231 29.2637C4.9907 28.9194 4.56032 28.6232 4.13093 28.4695C3.49469 28.2412 2.82065 28.3285 2.35313 28.8832C1.87306 29.4532 2.19398 29.9899 2.52614 30.5169C3.90196 32.7082 5.27217 34.9024 6.62999 37.1048C7.7042 38.8492 9.04123 40.3504 10.6564 41.6065C11.2978 42.1074 11.9292 42.6191 12.5613 43.1311C13.3888 43.7992 13.794 44.6707 13.7955 45.7333C13.7955 46.3641 13.7921 46.9951 13.7962 47.6258C13.8018 48.449 14.1932 48.8779 14.9998 48.8792C18.8008 48.8876 22.6017 48.8876 26.4033 48.8792C27.1869 48.8764 27.593 48.4572 27.6104 47.6701C27.6249 47.0393 27.6351 46.4083 27.6097 45.779C27.5653 44.6916 27.8166 43.6833 28.2758 42.7009C29.0907 40.959 29.8687 39.2022 30.6628 37.4506C31.3276 35.9857 31.7819 34.4542 31.8103 32.8481C31.8658 29.7781 31.8471 26.7057 31.8326 23.6358C31.8311 23.3259 31.704 22.9788 31.5343 22.713C31.1609 22.1307 30.4297 21.9148 29.7768 22.1238C29.1308 22.33 28.677 22.9343 28.6666 23.6787C28.6493 24.906 28.6644 26.1344 28.6575 27.3628C28.6562 27.5757 28.6506 27.8012 28.5855 28.0005C28.4318 28.468 27.9133 28.7558 27.4365 28.6727C26.915 28.5827 26.5527 28.1552 26.549 27.5714C26.54 25.9627 26.5608 24.3523 26.5325 22.7419C26.5269 22.3934 26.4322 22.01 26.2606 21.7099C25.9176 21.108 25.1843 20.8632 24.5287 21.0403C23.8639 21.2188 23.37 21.8288 23.3631 22.5454C23.3492 24.0893 23.3583 25.6332 23.3576 27.1772C23.3576 27.3264 23.3631 27.476 23.3541 27.6241C23.3162 28.2328 22.8789 28.6739 22.3118 28.6851C21.7218 28.6948 21.2521 28.2493 21.2473 27.6087C21.2321 25.6997 21.2419 23.792 21.2369 21.8828C21.2361 21.6516 21.2285 21.4165 21.1836 21.1896C21.0411 20.4759 20.4303 19.9583 19.7158 19.9245C19.0081 19.8907 18.322 20.3569 18.1249 21.0388C18.0577 21.2728 18.0549 21.5313 18.0549 21.7778C18.0494 23.6369 18.0542 25.4963 18.0501 27.3557C18.0488 28.1925 17.6372 28.6907 16.9703 28.6836C16.3043 28.6754 15.9162 28.1829 15.9106 27.3335C15.9099 27.2006 15.9106 27.0679 15.9106 26.935C15.9106 22.1718 15.9106 17.4074 15.9099 12.6436C15.9099 12.4451 15.9147 12.2446 15.8969 12.0468C15.829 11.2928 15.2093 10.6916 14.458 10.6426C13.4351 10.5747 12.7261 11.2948 12.7246 12.4252C12.7207 16.1601 12.7233 19.8951 12.7233 23.6305Z" fill="#6FAB55"/>
<path fill-rule="evenodd" clip-rule="evenodd" d="M15.3897 0.000163735C16.2932 0.199422 17.2187 0.328685 18.0958 0.609496C23.8959 2.46671 27.4345 8.387 26.3466 14.3601C26.3142 14.5392 26.2816 14.7205 26.2291 14.894C26.0582 15.4528 25.5629 15.7516 24.997 15.6478C24.4562 15.5496 24.0952 15.0565 24.1635 14.4749C24.2154 14.0308 24.3281 13.5928 24.3634 13.1487C24.7903 7.69612 21.1933 3.11978 15.7891 2.2275C10.3558 1.33026 4.93271 5.44881 4.32189 10.9187C3.9691 14.0744 4.85314 16.8149 7.00156 19.1501C7.52158 19.7158 7.55493 20.3349 7.09219 20.779C6.61361 21.2382 5.97786 21.1801 5.4377 20.5827C2.29943 17.1109 1.31239 13.0734 2.67979 8.62555C4.04323 4.19234 7.14551 1.44367 11.6485 0.30293C12.1577 0.173668 12.6813 0.0997116 13.1987 0C13.929 0.000165085 14.6595 0.000163735 15.3897 0.000163735Z" fill="#6FAB55"/>
<path fill-rule="evenodd" clip-rule="evenodd" d="M22.2786 11.8871C22.3027 12.6994 22.02 13.1545 21.4292 13.2521C20.7117 13.3704 20.2008 12.8952 20.1688 12.0831C20.1044 10.4464 19.5061 9.03331 18.2845 7.94177C16.4758 6.32674 14.3764 5.90131 12.1346 6.82463C9.90442 7.74383 8.68377 9.4911 8.50449 11.919C8.44291 12.7464 8.16838 13.1758 7.58645 13.2554C6.84918 13.3557 6.3186 12.8328 6.3602 12.002C6.49639 9.24627 7.67923 7.04172 10.0013 5.54968C12.5648 3.90262 15.2798 3.79334 17.9987 5.16041C20.5612 6.44841 22.1964 9.08647 22.2786 11.8871Z" fill="#6FAB55"/>
</svg>
