<svg width="35" height="53" viewBox="0 0 35 53" fill="none" xmlns="http://www.w3.org/2000/svg">
<path fill-rule="evenodd" clip-rule="evenodd" d="M14.6726 52.35C14.422 52.2536 14.1636 52.1739 13.923 52.0573C12.7349 51.4822 12.0605 50.545 11.9993 49.213C11.9681 48.5159 11.9766 47.8172 11.9915 47.1186C12.0022 46.5817 11.7998 46.1886 11.3837 45.8421C10.0495 44.7315 8.66441 43.668 7.44518 42.4411C6.50657 41.4954 5.72132 40.3763 4.98859 39.2545C3.53602 37.0336 2.2102 34.7273 0.74899 32.512C-0.380599 30.7982 -0.0910004 29.2944 0.685783 28.2917C1.61389 27.0934 3.45061 26.6275 5.05824 27.1628C5.89179 27.4413 6.55063 27.9539 7.11373 28.6185C8.33415 30.057 9.56541 31.4885 10.8619 33.0036C10.8739 32.731 10.8882 32.5549 10.8882 32.3787C10.8895 25.8023 10.8867 19.2278 10.8911 12.6514C10.8924 10.6975 12.2076 9.08721 14.02 8.79033C16.4533 8.39194 18.4938 10.1275 18.5259 12.6507C18.5486 14.4222 18.5308 16.1943 18.5308 17.966C18.5308 18.1521 18.5308 18.3379 18.5308 18.5935C19.4467 18.2698 20.3414 18.1498 21.2431 18.4239C22.1378 18.6957 22.8441 19.2361 23.3887 20.0469C24.3068 19.474 25.2859 19.212 26.353 19.4306C27.4038 19.6472 28.2184 20.2265 28.7686 21.0296C29.4837 20.8281 30.1368 20.529 30.8092 20.4751C32.9975 20.2997 34.8385 21.9499 34.8669 24.1964C34.9095 27.5846 34.8912 30.9771 34.7839 34.3638C34.7278 36.1418 34.1547 37.8358 33.4107 39.459C32.5671 41.2991 31.7136 43.1354 30.9214 44.9972C30.6885 45.544 30.5897 46.1686 30.5358 46.7678C30.4713 47.4778 30.5231 48.1978 30.5196 48.9121C30.5109 50.6304 29.595 51.8203 27.9437 52.2676C27.8796 52.2848 27.8207 52.3217 27.7597 52.35C23.3974 52.35 19.0351 52.35 14.6726 52.35ZM13.0601 24.256C13.0601 27.782 13.0601 31.3092 13.0594 34.8366C13.0594 35.244 13.065 35.6544 13.0494 36.062C13.0323 36.5178 12.7852 36.8331 12.3721 36.9965C11.9559 37.1626 11.5677 37.0746 11.2332 36.7777C11.1324 36.6869 11.0478 36.579 10.959 36.4753C9.12076 34.3252 7.29539 32.1655 5.43239 30.0383C5.1228 29.6848 4.68103 29.3808 4.24028 29.2231C3.5872 28.9887 2.89531 29.0784 2.41541 29.6477C1.92264 30.2329 2.25206 30.7838 2.593 31.3247C4.00524 33.574 5.41172 35.8262 6.80549 38.0869C7.90814 39.8776 9.28055 41.4184 10.9385 42.7078C11.5968 43.2219 12.245 43.7473 12.8938 44.2727C13.7432 44.9585 14.1592 45.8531 14.1607 46.9439C14.1607 47.5914 14.1571 48.239 14.1614 48.8865C14.1671 49.7314 14.5689 50.1716 15.3969 50.173C19.2984 50.1816 23.2 50.1816 27.1022 50.173C27.9066 50.1701 28.3234 49.7399 28.3412 48.9319C28.3561 48.2844 28.3666 47.6368 28.3405 46.9908C28.295 45.8746 28.5529 44.8396 29.0243 43.8311C29.8607 42.0432 30.6594 40.2399 31.4745 38.442C32.1568 36.9382 32.6232 35.3662 32.6523 33.7175C32.7093 30.5663 32.6901 27.4126 32.6752 24.2614C32.6737 23.9434 32.5432 23.587 32.369 23.3142C31.9857 22.7165 31.2352 22.4949 30.565 22.7094C29.9019 22.921 29.4361 23.5414 29.4254 24.3055C29.4076 25.5652 29.4232 26.8261 29.4161 28.087C29.4147 28.3056 29.409 28.5371 29.3422 28.7416C29.1844 29.2215 28.6522 29.5169 28.1628 29.4317C27.6275 29.3393 27.2555 28.9004 27.2518 28.3012C27.2425 26.6499 27.2638 24.9969 27.2349 23.3438C27.2291 22.9861 27.1318 22.5926 26.9558 22.2846C26.6036 21.6667 25.8509 21.4154 25.178 21.5972C24.4956 21.7804 23.9886 22.4066 23.9815 23.1422C23.9672 24.7269 23.9766 26.3117 23.9759 27.8966C23.9759 28.0498 23.9815 28.2033 23.9723 28.3553C23.9334 28.9801 23.4845 29.4329 22.9024 29.4444C22.2968 29.4544 21.8147 28.997 21.8097 28.3395C21.7941 26.38 21.8041 24.4217 21.7991 22.462C21.7982 22.2247 21.7904 21.9834 21.7443 21.7504C21.5981 21.0179 20.9711 20.4866 20.2377 20.4519C19.5113 20.4172 18.807 20.8957 18.6047 21.5957C18.5357 21.8358 18.5328 22.1012 18.5328 22.3542C18.5272 24.2626 18.5321 26.1712 18.5279 28.0798C18.5265 28.9387 18.1041 29.4501 17.4195 29.4429C16.7359 29.4344 16.3375 28.9289 16.3318 28.0571C16.3311 27.9206 16.3318 27.7844 16.3318 27.648C16.3318 22.7587 16.3318 17.8682 16.3311 12.9782C16.3311 12.7746 16.336 12.5687 16.3177 12.3657C16.248 11.5918 15.6119 10.9746 14.8407 10.9243C13.7908 10.8546 13.063 11.5938 13.0614 12.7541C13.0574 16.5878 13.0601 20.4217 13.0601 24.256Z" fill="#CA282C"/>
<path fill-rule="evenodd" clip-rule="evenodd" d="M15.7971 0.000168069C16.7245 0.204701 17.6745 0.337386 18.5748 0.625629C24.5285 2.532 28.1607 8.609 27.044 14.7402C27.0108 14.9241 26.9773 15.1102 26.9234 15.2882C26.748 15.8619 26.2396 16.1686 25.6587 16.062C25.1036 15.9612 24.733 15.455 24.8031 14.858C24.8564 14.4022 24.9721 13.9526 25.0084 13.4968C25.4466 7.89983 21.7543 3.20236 16.207 2.28646C10.6299 1.36547 5.0633 5.59304 4.43631 11.2078C4.07419 14.4469 4.98162 17.26 7.18691 19.657C7.7207 20.2377 7.75493 20.8732 7.27994 21.329C6.78869 21.8004 6.13612 21.7408 5.58166 21.1275C2.36032 17.5639 1.34714 13.4195 2.75074 8.85387C4.15027 4.30331 7.33468 1.48188 11.9569 0.310949C12.4795 0.178265 13.017 0.102351 13.5481 0C14.2978 0.000169455 15.0476 0.000168069 15.7971 0.000168069Z" fill="#CA282C"/>
<path fill-rule="evenodd" clip-rule="evenodd" d="M22.8683 12.2018C22.8931 13.0355 22.603 13.5027 21.9965 13.6029C21.26 13.7244 20.7356 13.2365 20.7027 12.4029C20.6366 10.723 20.0225 9.27243 18.7685 8.15199C16.912 6.49421 14.757 6.05753 12.4558 7.00529C10.1666 7.94882 8.91368 9.74233 8.72965 12.2345C8.66644 13.0838 8.38464 13.5246 7.78731 13.6063C7.03052 13.7093 6.48589 13.1724 6.52859 12.3197C6.66839 9.49103 7.88254 7.22813 10.2661 5.69659C12.8974 4.00593 15.6843 3.89375 18.4752 5.29701C21.1055 6.6191 22.7839 9.327 22.8683 12.2018Z" fill="#CA282C"/>
</svg>
